<svg xmlns="http://www.w3.org/2000/svg" xmlns:xlink="http://www.w3.org/1999/xlink" version="1.1" height="24px"
  viewBox="0 0 18 18" width="24px" fill="#000000">
  <path fill="#000000"
    d="M11.0119846,13 L16,13 L16,15 L11.0119846,15 L11.0119846,16.9944804 L9.03685276,15.0409865 L7.98433567,14 L9.03289155,12.9629313 L11.0119846,11.0055196 L11.0119846,13 Z M1,8 L2.99632026,8 L2.99632026,10 L1,10 L1,8 Z M3.99264052,3.99686968 C3.99264052,2.34174426 5.33709312,1 6.98804084,1 C8.64235476,1 9.98344117,2.34739093 9.98344117,3.99686968 L9.98344117,7.00313032 C9.98344117,8.65825574 8.63898856,10 6.98804084,10 C5.33372692,10 3.99264052,8.65260907 3.99264052,7.00313032 L3.99264052,3.99686968 Z M5.5,3.99857602 L5.5,7.00142398 C5.5,7.83497024 6.17157288,8.5 7,8.5 C7.83420277,8.5 8.5,7.82906466 8.5,7.00142398 L8.5,3.99857602 C8.5,3.16502976 7.82842712,2.5 7,2.5 C6.16579723,2.5 5.5,3.17093534 5.5,3.99857602 Z"
    transform="translate(1 0)" />
</svg>