<svg xmlns="http://www.w3.org/2000/svg" xmlns:xlink="http://www.w3.org/1999/xlink" version="1.1" height="24px"
  viewBox="0 0 19 18" width="24px" fill="#000000">
  <path fill="#000000"
    d="M0,7 L1.99632026,7 L1.99632026,9 L0,9 L0,7 Z M10,12 L15,12 L15,14 L10,14 L10,12 Z M16.9694527,11.9570946 L18,13.0188246 L16.9734025,14.0389803 L15,16 L15,10 L16.9694527,11.9570946 Z M2.99264052,2.99686968 C2.99264052,1.34174426 4.33709312,-1.59872116e-14 5.98804084,-1.59872116e-14 C7.64235476,-1.59872116e-14 8.98344117,1.34739093 8.98344117,2.99686968 L8.98344117,6.00313032 C8.98344117,7.65825574 7.63898856,9 5.98804084,9 C4.33372692,9 2.99264052,7.65260907 2.99264052,6.00313032 L2.99264052,2.99686968 Z M4.5,2.99857602 L4.5,6.00142398 C4.5,6.83497024 5.17157288,7.5 6,7.5 C6.83420277,7.5 7.5,6.82906466 7.5,6.00142398 L7.5,2.99857602 C7.5,2.16502976 6.82842712,1.5 6,1.5 C5.16579723,1.5 4.5,2.17093534 4.5,2.99857602 Z M9.99264052,2.99686968 C9.99264052,1.34174426 11.3370931,-1.59872116e-14 12.9880408,-1.59872116e-14 C14.6423548,-1.59872116e-14 15.9834412,1.34739093 15.9834412,2.99686968 L15.9834412,6.00313032 C15.9834412,7.65825574 14.6389886,9 12.9880408,9 C11.3337269,9 9.99264052,7.65260907 9.99264052,6.00313032 L9.99264052,2.99686968 Z M11.5,2.99857602 L11.5,6.00142398 C11.5,6.83497024 12.1715729,7.5 13,7.5 C13.8342028,7.5 14.5,6.82906466 14.5,6.00142398 L14.5,2.99857602 C14.5,2.16502976 13.8284271,1.5 13,1.5 C12.1657972,1.5 11.5,2.17093534 11.5,2.99857602 Z"
    transform="translate(1 1)" />
</svg>