<svg xmlns="http://www.w3.org/2000/svg" height="24" class="tanuki-logo" viewBox="0 0 516.559 197.411"><defs><style>.a{fill:#124c8b;}.b{fill:#fff;}</style></defs><title>ten9-color-white-svg</title><rect class="a" x="319.147" width="197.411" height="197.411" rx="32"/><path class="b" d="M389.674,178.152a2.313,2.313,0,0,1-1.824-3.743q12.691-16.2,21.7-28.9,10.936-15.5,18.861-28.882a143.508,143.508,0,0,0,9.209-18.342,85.783,85.783,0,0,0,4.576-14.05,52.387,52.387,0,0,0,1.17-10.65,33.364,33.364,0,0,0-3.014-14.552,21,21,0,0,0-8.759-9.533,26.522,26.522,0,0,0-13.227-3.235,29.9,29.9,0,0,0-14.285,3.51,25.038,25.038,0,0,0-10.156,9.686A26.782,26.782,0,0,0,390.355,73.1a27.62,27.62,0,0,0,2.625,12.416,18.018,18.018,0,0,0,8.817,8.24,33.517,33.517,0,0,0,14.562,2.952,35.7,35.7,0,0,0,6.419-.558c.409-.075.835-.156,1.279-.246a3.547,3.547,0,0,1,3.989,4.875c-3.1,6.977-8.553,17.6-12.154,17.719-4.241.744-8.573.307-11.921.307a57.564,57.564,0,0,1-24.718-5.3q-11.328-5.3-16.575-15.122a45.424,45.424,0,0,1-5.246-21.763,51.334,51.334,0,0,1,7.478-27.231Q372.387,37.11,386.9,30.135t33.37-6.976a82.2,82.2,0,0,1,23.883,3.4A45.236,45.236,0,0,1,462.62,36.831a41.857,41.857,0,0,1,10.6,16.294,53.649,53.649,0,0,1,3.406,18.247,82.065,82.065,0,0,1-1.5,14.731,102.015,102.015,0,0,1-4.911,17.187A213.4,213.4,0,0,1,461,123.825a246.111,246.111,0,0,1-14,23.995q-7.966,12.14-19.883,29.332a2.36,2.36,0,0,1-1.948,1.011q-9.294-.1-18.293-.1Z" transform="translate(-2.511 -3.82)"/><path class="a" d="M76.127,157.9v24.137H57.421q-2.616,0-7.24-.3a38.677,38.677,0,0,1-7.241-1.006q-2.617-.7-6.437-1.91A15.865,15.865,0,0,1,30.57,175.7q-2.112-1.91-4.727-4.727a18.458,18.458,0,0,1-3.922-6.537,56.873,56.873,0,0,1-2.213-8.749,63.906,63.906,0,0,1-.9-11.264V139.4q0-2.213-.1-4.827t-.1-5.833V101.986H2.511V74.431H18.6V47.679l32.987-5.631V74.431H76.73l-3.418,27.555H51.589V140q0,4.425.2,6.636a9.578,9.578,0,0,0,1.911,4.627,9.184,9.184,0,0,0,5.129,3.419A42.337,42.337,0,0,0,76.127,157.9Z" transform="translate(-2.511 -3.82)"/><path class="a" d="M180.917,94.343q3.817,8.448,3.821,24.137v19.108H124.6v3.217q0,10.863,6.638,13.276a45.706,45.706,0,0,0,11.867,1.408h2.615a178.759,178.759,0,0,0,36.2-3.822h.2V178.62q0,.6-16.895,3.218a215.256,215.256,0,0,1-24.338,1.207q-35.4,0-45.658-23.936A52.1,52.1,0,0,1,91.411,139.4V113.652q0-28.36,23.734-37.612a72.085,72.085,0,0,1,22.527-3.42Q170.86,72.62,180.917,94.343Zm-29.366,19.108q0-11.059-4.828-13.275a15.6,15.6,0,0,0-8.85-2.414q-13.275,0-13.275,12.471v5.028h26.953Z" transform="translate(-2.511 -3.82)"/><path class="a" d="M290.535,87.706q4.02,7.443,4.023,31.176v62.754H261.37V112.848q0-9.854-9.453-12.069a37.315,37.315,0,0,0-6.437-.2,40.414,40.414,0,0,0-14.079,4.627v76.431H198.415V74.23h27.354l1,2.011a35.777,35.777,0,0,1,2.012,5.028,9.662,9.662,0,0,0,1.81-.905q1.608-.9,3.118-1.609t4.324-1.709q2.815-1.005,5.632-1.811a57.086,57.086,0,0,1,6.638-1.408,74.075,74.075,0,0,1,7.643-.8q11.26-.6,19.108,2.313T290.535,87.706Z" transform="translate(-2.511 -3.82)"/></svg>